<?xml version="1.0" encoding="UTF-8" standalone="no"?>
<!-- Generator: Adobe Illustrator 13.0.0, SVG Export Plug-In . SVG Version: 6.00 Build 14948)  -->

<svg
   xmlns:dc="http://purl.org/dc/elements/1.1/"
   xmlns:cc="http://creativecommons.org/ns#"
   xmlns:rdf="http://www.w3.org/1999/02/22-rdf-syntax-ns#"
   xmlns:svg="http://www.w3.org/2000/svg"
   xmlns="http://www.w3.org/2000/svg"
   xmlns:sodipodi="http://sodipodi.sourceforge.net/DTD/sodipodi-0.dtd"
   xmlns:inkscape="http://www.inkscape.org/namespaces/inkscape"
   version="1.1"
   x="0px"
   y="0px"
   width="55px"
   height="55px"
   viewBox="0 0 55 55"
   enable-background="new 0 0 55 55"
   xml:space="preserve"
   id="svg2"
   inkscape:version="0.48.4 r9939"
   sodipodi:docname="tool-brush.svg"><metadata
     id="metadata15"><rdf:RDF><cc:Work
         rdf:about=""><dc:format>image/svg+xml</dc:format><dc:type
           rdf:resource="http://purl.org/dc/dcmitype/StillImage" /><dc:title></dc:title></cc:Work></rdf:RDF></metadata><defs
     id="defs13" /><sodipodi:namedview
     pagecolor="#ffffff"
     bordercolor="#666666"
     borderopacity="1"
     objecttolerance="10"
     gridtolerance="10"
     guidetolerance="10"
     inkscape:pageopacity="0"
     inkscape:pageshadow="2"
     inkscape:window-width="640"
     inkscape:window-height="480"
     id="namedview11"
     showgrid="false"
     inkscape:zoom="6.0682618"
     inkscape:cx="54.263568"
     inkscape:cy="-0.88186156"
     inkscape:window-x="0"
     inkscape:window-y="27"
     inkscape:window-maximized="0"
     inkscape:current-layer="svg2" /><g
     id="Brush"
     style="fill:#ffffff"
     transform="matrix(0.53610333,0,0,0.53610333,-3.71699,-0.59640446)"><g
       display="inline"
       id="g5"
       style="fill:#ffffff;display:inline"><path
         d="m 26.939,32.777 c 0,0 9.546,-10.04 12.062,-13.721 C 42.698,13.65 44.989,8.227 42.995,7.281 41.527,6.584 36.526,10.715 33.524,15.177 31.491,18.205 24,30.635 24,30.635 l 2.939,2.142 z"
         id="path7"
         style="fill:#ffffff"
         inkscape:connector-curvature="0" /><path
         d="m 25.613,34.668 -2.971,-2.166 c 0,0 -3.054,1.592 -4.602,3.862 -1.546,2.284 -2.31,6.661 -4.752,9.01 -1.465,1.409 -0.186,1.085 -0.186,1.085 0,0 7.907,-2.985 9.786,-5.477 1.862,-2.47 2.725,-6.314 2.725,-6.314 z"
         id="path9"
         style="fill:#ffffff"
         inkscape:connector-curvature="0" /></g></g><g
     transform="matrix(0.53610333,0,0,0.53610333,27.977925,-0.59640446)"
     style="fill:#ffffff"
     id="g2992"><g
       style="fill:#ffffff;display:inline"
       id="g2994"
       display="inline"><path
         inkscape:connector-curvature="0"
         style="fill:#ffffff"
         id="path2996"
         d="m 26.939,32.777 c 0,0 9.546,-10.04 12.062,-13.721 C 42.698,13.65 44.989,8.227 42.995,7.281 41.527,6.584 36.526,10.715 33.524,15.177 31.491,18.205 24,30.635 24,30.635 l 2.939,2.142 z" /><path
         inkscape:connector-curvature="0"
         style="fill:#ffffff"
         id="path2998"
         d="m 25.613,34.668 -2.971,-2.166 c 0,0 -3.054,1.592 -4.602,3.862 -1.546,2.284 -2.31,6.661 -4.752,9.01 -1.465,1.409 -0.186,1.085 -0.186,1.085 0,0 7.907,-2.985 9.786,-5.477 1.862,-2.47 2.725,-6.314 2.725,-6.314 z" /></g></g><g
     id="g3000"
     style="fill:#ffffff"
     transform="matrix(0.53610333,0,0,0.53610333,27.977925,25.971392)"><g
       display="inline"
       id="g3002"
       style="fill:#ffffff;display:inline"><path
         d="m 26.939,32.777 c 0,0 9.546,-10.04 12.062,-13.721 C 42.698,13.65 44.989,8.227 42.995,7.281 41.527,6.584 36.526,10.715 33.524,15.177 31.491,18.205 24,30.635 24,30.635 l 2.939,2.142 z"
         id="path3004"
         style="fill:#ffffff"
         inkscape:connector-curvature="0" /><path
         d="m 25.613,34.668 -2.971,-2.166 c 0,0 -3.054,1.592 -4.602,3.862 -1.546,2.284 -2.31,6.661 -4.752,9.01 -1.465,1.409 -0.186,1.085 -0.186,1.085 0,0 7.907,-2.985 9.786,-5.477 1.862,-2.47 2.725,-6.314 2.725,-6.314 z"
         id="path3006"
         style="fill:#ffffff"
         inkscape:connector-curvature="0" /></g></g><g
     transform="matrix(0.53610333,0,0,0.53610333,-3.7169902,25.971392)"
     style="fill:#ffffff"
     id="g3008"><g
       style="fill:#ffffff;display:inline"
       id="g3010"
       display="inline"><path
         inkscape:connector-curvature="0"
         style="fill:#ffffff"
         id="path3012"
         d="m 26.939,32.777 c 0,0 9.546,-10.04 12.062,-13.721 C 42.698,13.65 44.989,8.227 42.995,7.281 41.527,6.584 36.526,10.715 33.524,15.177 31.491,18.205 24,30.635 24,30.635 l 2.939,2.142 z" /><path
         inkscape:connector-curvature="0"
         style="fill:#ffffff"
         id="path3014"
         d="m 25.613,34.668 -2.971,-2.166 c 0,0 -3.054,1.592 -4.602,3.862 -1.546,2.284 -2.31,6.661 -4.752,9.01 -1.465,1.409 -0.186,1.085 -0.186,1.085 0,0 7.907,-2.985 9.786,-5.477 1.862,-2.47 2.725,-6.314 2.725,-6.314 z" /></g></g></svg>