<?xml version="1.0" encoding="UTF-8" standalone="no"?>
<!-- Created with Inkscape (http://www.inkscape.org/) -->

<svg
   xmlns:dc="http://purl.org/dc/elements/1.1/"
   xmlns:cc="http://creativecommons.org/ns#"
   xmlns:rdf="http://www.w3.org/1999/02/22-rdf-syntax-ns#"
   xmlns:svg="http://www.w3.org/2000/svg"
   xmlns="http://www.w3.org/2000/svg"
   version="1.1"
   width="55"
   height="55"
   id="svg2">
  <defs
     id="defs4" />
  <metadata
     id="metadata7">
    <rdf:RDF>
      <cc:Work
         rdf:about="">
        <dc:format>image/svg+xml</dc:format>
        <dc:type
           rdf:resource="http://purl.org/dc/dcmitype/StillImage" />
        <dc:title></dc:title>
      </cc:Work>
    </rdf:RDF>
  </metadata>
  <g
     transform="translate(0,-997.36218)"
     id="layer1">
    <g
       transform="translate(0,-1.9900249)"
       id="g5745">
      <g
         transform="matrix(1.0721874,0,0,1.0721874,-3.1029101,997.94655)"
         id="g3943">
        <g
           id="g3945">
          <path
             d="m 6.736,49.002 h 24.52 c 2.225,0 3.439,-1.447 3.439,-3.441 v -27.28 c 0,-1.73 -1.732,-3.441 -3.439,-3.441 h -4.389"
             id="path3947"
             style="fill:#ffffff;stroke:#010101;stroke-width:3.5;stroke-linecap:round;stroke-linejoin:round" />
        </g>
      </g>
      <g
         transform="matrix(1.0721874,0,0,1.0721874,-3.1029101,997.94655)"
         id="g3949">
        <g
           id="g3951">
          <path
             d="m 26.867,38.592 c 0,1.836 -1.345,3.201 -3.441,4.047 L 6.736,49.002 V 14.84 l 16.69,-8.599 c 2.228,-0.394 3.441,0.84 3.441,2.834 v 29.517 z"
             id="path3953"
             style="fill:#ffffff;stroke:#010101;stroke-width:3.5;stroke-linecap:round;stroke-linejoin:round" />
        </g>
      </g>
      <path
         d="m 7.001384,1043.6292 c 0,0 -1.4485252,-0.5822 -2.8970504,-0.5822 -1.4485252,0 -2.8981225,0.5822 -2.8981225,0.5822"
         id="path3955"
         style="fill:none;stroke:#010101;stroke-width:2.4124217;stroke-linecap:round;stroke-linejoin:round" />
      <path
         d="m 7.001384,1032.263 c 0,0 -1.3284402,-0.5822 -3.0182076,-0.5822 -1.6908395,0 -2.7769653,0.5822 -2.7769653,0.5822"
         id="path3957"
         style="fill:none;stroke:#010101;stroke-width:2.4124217;stroke-linecap:round;stroke-linejoin:round" />
      <path
         d="m 7.001384,1021.1894 c 0,0 -1.2062109,-0.5832 -3.1382926,-0.5832 -1.9320817,0 -2.6568803,0.5832 -2.6568803,0.5832"
         id="path3959"
         style="fill:none;stroke:#010101;stroke-width:2.4124217;stroke-linecap:round;stroke-linejoin:round" />
      <line
         style="fill:none;stroke:#010101;stroke-width:2.4124217;stroke-linecap:round;stroke-linejoin:round"
         x1="11.059613"
         x2="11.059613"
         y1="1047.8386"
         y2="1010.282"
         id="line3961" />
      <g
         transform="matrix(-1.0721874,0,0,-1.0721874,97.265625,1020.5751)"
         id="g3963">
        <line
           style="fill:#000000;stroke:#000000;stroke-width:3.5;stroke-linecap:round;stroke-linejoin:round"
           x1="41.169998"
           x2="52.441002"
           y1="16.188"
           y2="4.9169998"
           id="line3965" />
        <polyline
           style="fill:none;stroke:#000000;stroke-width:3.5;stroke-linecap:round;stroke-linejoin:round"
           points="     51.562,15.306 41.17,16.188 42.053,5.794    "
           id="polyline3967" />
      </g>
    </g>
  </g>
</svg>
